<?xml version="1.0" standalone="no"?>
<!DOCTYPE svg PUBLIC "-//W3C//DTD SVG 20010904//EN"
 "http://www.w3.org/TR/2001/REC-SVG-20010904/DTD/svg10.dtd">
<svg version="1.0" xmlns="http://www.w3.org/2000/svg"
 width="360.000000pt" height="360.000000pt" viewBox="0 0 360.000000 360.000000"
 preserveAspectRatio="xMidYMid meet">
<metadata>
Created by potrace 1.14, written by Peter Selinger 2001-2017
</metadata>
<g transform="translate(0.000000,360.000000) scale(0.100000,-0.100000)"
fill="#000000" stroke="none">
<path d="M0 1800 l0 -1800 1800 0 1800 0 0 1800 0 1800 -1800 0 -1800 0 0
-1800z m1630 743 c0 -5 7 -16 14 -26 14 -18 16 -18 41 -1 25 16 26 16 40 -2 8
-10 15 -23 15 -27 0 -5 8 -6 19 -2 14 4 21 -2 31 -25 15 -36 14 -35 50 -10 41
29 47 1 8 -36 -73 -69 -164 -227 -204 -353 -64 -199 -108 -490 -102 -683 3
-113 4 -117 34 -154 62 -77 98 -98 174 -102 95 -6 119 11 275 183 l129 145 71
0 71 0 -6 -47 -5 -48 -50 -5 c-27 -3 -55 -9 -62 -13 -6 -4 -14 -29 -18 -56
l-7 -48 -50 -9 c-49 -9 -52 -11 -63 -49 -11 -39 -12 -40 -52 -37 -34 3 -44 -1
-53 -18 -9 -17 -17 -20 -45 -14 -32 6 -35 4 -52 -31 -12 -26 -22 -35 -35 -32
-12 3 -24 -6 -38 -30 -11 -19 -26 -33 -33 -30 -50 19 -56 18 -78 -12 -22 -29
-23 -30 -52 -14 -25 12 -35 13 -50 3 -16 -10 -24 -8 -49 10 l-29 21 -31 -26
-31 -26 -26 25 -27 25 -32 -19 -32 -20 -21 30 c-21 28 -23 29 -52 13 -32 -16
-38 -13 -66 35 -6 11 -21 9 -78 -7 l-71 -19 -27 59 -26 59 -44 0 c-65 0 -63
16 4 29 66 13 141 58 162 97 l14 27 5 -49 5 -49 123 -5 c72 -3 127 -1 133 5 5
5 9 144 9 336 0 265 -3 329 -14 338 -9 8 -94 11 -287 9 l-274 -3 0 -120 0
-120 144 -3 144 -3 -6 -44 c-6 -55 -46 -118 -89 -142 -25 -13 -56 -18 -123
-18 -77 0 -96 4 -132 24 -43 25 -82 72 -104 126 -7 18 -14 101 -17 201 -4 150
-1 185 18 278 21 100 25 108 65 145 77 71 229 79 311 16 39 -30 74 -92 74
-132 0 -15 3 -38 6 -51 6 -22 8 -23 143 -20 l136 3 -2 71 c-6 159 -99 314
-225 372 -20 9 -38 19 -38 22 0 3 9 20 20 38 l20 32 56 -37 56 -37 20 27 c19
26 20 26 45 10 24 -16 26 -16 43 8 l19 24 24 -23 25 -23 21 28 21 28 23 -28
23 -27 24 25 c16 17 27 22 35 15 8 -7 18 -4 30 10 18 20 35 26 35 13z m-615
-87 c186 -49 298 -187 319 -393 l5 -53 -119 0 c-114 0 -120 1 -120 21 0 89
-67 186 -147 213 -56 19 -154 20 -206 2 -58 -21 -105 -62 -135 -119 l-27 -52
0 -255 0 -255 27 -51 c51 -98 120 -134 249 -134 87 0 141 21 182 69 27 32 57
115 57 158 l0 23 -150 0 -150 0 0 105 0 105 268 -2 267 -3 3 -322 2 -323 -115
0 -115 0 0 60 c0 70 -14 77 -47 26 -51 -80 -126 -110 -263 -109 -190 2 -325
84 -409 250 -42 84 -51 153 -51 404 0 260 13 344 65 433 49 84 150 164 245
195 98 31 261 35 365 7z m1168 -17 c13 -6 39 -35 57 -65 l32 -54 229 0 228 0
30 44 c55 80 69 86 193 86 l108 0 45 -41 c121 -111 226 -342 279 -614 29 -144
32 -162 47 -336 12 -132 11 -138 -10 -181 -25 -52 -114 -124 -165 -134 -47 -8
-107 11 -148 48 -20 18 -85 87 -144 153 -60 66 -113 123 -119 127 -5 4 -164 8
-352 8 l-342 0 -137 -150 c-75 -82 -147 -156 -161 -165 -36 -24 -112 -30 -153
-13 -50 21 -98 64 -120 109 -23 44 -25 114 -10 274 21 222 47 363 90 494 55
169 155 336 237 394 36 25 44 27 150 27 62 0 123 -5 136 -11z"/>
<path d="M2290 2233 c0 -54 1 -54 216 -51 l199 3 3 38 3 37 -210 0 -211 0 0
-27z m94 -18 c4 -12 -3 -15 -29 -15 -24 0 -35 5 -35 15 0 10 10 15 29 15 16 0
31 -6 35 -15z"/>
<path d="M1968 2089 c-13 -7 -18 -23 -18 -57 0 -60 -12 -72 -70 -72 -49 0 -70
-13 -70 -41 0 -31 29 -49 80 -49 54 0 60 -7 60 -75 0 -44 10 -55 50 -55 25 0
34 16 40 75 l5 50 50 5 c61 7 75 15 75 44 0 33 -18 44 -75 48 l-50 3 -5 51
c-8 73 -31 97 -72 73z m42 -67 c0 -56 22 -84 67 -87 16 -1 36 -3 46 -3 9 -1
17 -9 17 -17 0 -11 -12 -15 -45 -15 -63 0 -85 -24 -85 -91 0 -43 -3 -50 -17
-47 -14 2 -19 15 -21 55 -4 63 -25 83 -90 83 -36 0 -43 3 -40 18 2 12 14 17
38 19 19 1 40 2 47 2 26 2 43 33 43 82 0 42 3 49 20 49 17 0 20 -7 20 -48z"/>
<path d="M2926 2057 c-40 -29 -13 -97 39 -97 30 0 45 19 45 57 0 47 -45 68
-84 40z"/>
<path d="M2722 1858 c-17 -17 -15 -63 3 -78 36 -30 95 -4 95 41 0 40 -69 66
-98 37z"/>
<path d="M3040 1789 c-27 -50 18 -101 68 -77 30 15 39 46 22 77 -15 29 -75 29
-90 0z"/>
</g>
</svg>
